#N canvas 1361 -7 2195 1212 10;
#X obj 38 36 tgl 100 0 empty empty ON/OFF 17 7 0 10 #fcfcfc #ff0000
#ff0000 0 1;
#X obj 696 898 output~;
#X obj 1331 367 random 100;
#X obj 1331 421 / 50;
#X obj 1331 446 - 1;
#X floatatom 1331 471 5 0 0 0 - - -, f 5;
#X floatatom 1418 445 5 0 0 0 - - -, f 5;
#X obj 1436 644 line;
#X floatatom 1436 669 5 0 0 0 - - -, f 5;
#X floatatom 1331 392 5 0 0 0 - - -, f 5;
#X obj 1424 509 delay;
#X obj 1424 480 t b f;
#X obj 1331 292 bng 15 250 50 0 empty empty empty 17 7 0 10 #fcfcfc
#000000 #000000;
#X obj 1331 315 t b b b;
#X floatatom 1492 443 5 0 0 0 - - -, f 5;
#X obj 1425 543 spigot;
#X obj 1492 390 t f f;
#X obj 1436 594 pack f f f;
#X msg 1436 619 \$1 \, \$2 \$3;
#X obj 1412 367 random 500;
#X obj 1411 413 + 100;
#X obj 38 147 s \$0-patchon;
#X obj 1283 258 r \$0-patchon;
#X obj 1439 314 / 10;
#X floatatom 1439 287 5 0 0 0 - - -, f 5;
#X obj 591 127 osc~;
#N canvas 0 0 450 300 (subpatch) 0;
#X array spect 25 float 1 black #ff0000;
#A 0 0.18 0.6 -0.04 -0.7 0.28 0.56 0.94 0.0599999 -0.56 -0.04 -0.2
-0.96 0.04 -0.96 0.46 -0.62 0.2 0.96 -0.32 0.62 -0.76 -0.68 -0.56 -0.4
-0.1;
#X coords 0 1 24 -1 200 140 1;
#X restore 38 380 graph;
#X obj 589 418 metro 100;
#X obj 698 474 tabread~ spect;
#N canvas 0 0 450 300 (subpatch) 0;
#X array result 100 float 1 black #ff0000;
#A 0 -0.12 -0.12 -0.12 -0.12 -0.12 -0.12 -0.12 -0.12 -0.12 0.2 0.2
0.2 0.2 0.2 0.2 0.2 0.2 0.2 0.2 0.2 0.2 0.2 0.2 0.2 0.2 0.2 0.2 0.2
0.2 0.2 0.2 0.2 0.2 0.2 0.2 0.2 0.2 0.2 0.2 0.2 0.2 0.2 0.2 0.2 0.2
0.2 0.2 0.2 0.2 0.2 0.2 0.2 0.2 0.2 0.2 0.2 0.2 0.2 0.2 0.2 0.2 0.2
0.2 0.2 0.2 0.2 0.2 0.2 0.2 0.2 0.2 0.2 0.2 0.2 0.2 0.2 0.2 0.2 0.2
0.2 0.2 0.2 0.2 0.2 0.96 0.96 0.96 0.96 0.96 0.96 0.96 0.96 0.96 0.96
0.96 0.96 0.96 0.96 0.96 0.96;
#X coords 0 1 99 -1 288 199 1;
#X restore 38 551 graph;
#X obj 699 839 *~ 1;
#X obj 1435 695 tabwrite spect;
#X obj 1492 418 tabread spect;
#X obj 1492 366 random 25;
#X obj 590 447 tabwrite~ result;
#X obj 699 422 +~ 1;
#X obj 589 388 r \$0-patchon;
#X obj 589 84 midiControl;
#X obj 589 56 notein;
#X obj 699 393 *~;
#X obj 835 439 vline~;
#X obj 835 361 random 2970;
#X obj 835 386 + 30;
#X msg 835 414 1 20 \, 0.8 \$1 30;
#X obj 868 777 line;
#X msg 744 711 \$1 \$2;
#X obj 813 665 delay;
#X obj 744 686 pack;
#X obj 815 692 f;
#X msg 856 727 \$1 \, \$2 \$3;
#X obj 856 702 pack f f f;
#X obj 919 617 expr ($f1 * $f2) / 100;
#X obj 919 588 pack;
#X floatatom 919 646 5 0 0 0 - - -, f 5;
#X floatatom 672 85 5 0 0 0 - - -, f 5;
#X obj 1065 640 f;
#X floatatom 1031 262 5 0 0 0 - - -, f 5;
#X floatatom 1103 261 5 0 0 0 - - -, f 5;
#X floatatom 1173 260 5 0 0 0 - - -, f 5;
#X floatatom 1230 261 5 0 0 0 - - -, f 5;
#X obj 1011 340 + 10;
#X obj 1083 338 + 10;
#X obj 1210 338 + 10;
#X obj 833 322 t b b;
#X obj 903 226 spigot;
#X floatatom 867 802 5 0 0 0 - - -, f 5;
#X obj 744 635 t f b;
#X obj 771 661 f;
#X obj 718 86 s peak;
#X obj 743 536 r peak;
#X obj 786 635 r attack;
#X obj 1011 365 s attack;
#X obj 1083 363 s decay;
#X obj 950 657 r decay;
#X obj 1146 362 s sus;
#X obj 920 535 r sus;
#X obj 1210 363 s rel;
#X obj 1107 612 r rel;
#X obj 1066 611 sel 0;
#X obj 851 568 r attack;
#X obj 920 562 f;
#X obj 969 569 t b f;
#X obj 743 612 spigot;
#X obj 743 561 change;
#X obj 743 586 t f f;
#X obj 969 469 r peak;
#X obj 969 545 spigot;
#X obj 969 494 change;
#X obj 969 519 t f f;
#X obj 854 597 r peak;
#X obj 854 673 spigot;
#X obj 854 622 change;
#X obj 854 647 t f f;
#X obj 833 220 r peak;
#X obj 833 296 spigot;
#X obj 833 245 change;
#X obj 833 270 t f f;
#X obj 1066 555 r peak;
#X obj 1066 583 change;
#X msg 458 878 30;
#X obj 458 852 loadbang;
#X floatatom 1034 418 5 0 0 0 - - -, f 5;
#X floatatom 1084 421 5 0 0 0 - - -, f 5;
#X floatatom 1130 418 5 0 0 0 - - -, f 5;
#X floatatom 1178 422 5 0 0 0 - - -, f 5;
#X obj 1011 314 drunk 200;
#X obj 1083 313 drunk 200;
#X obj 957 267 + 5;
#X obj 900 274 t b b;
#X obj 956 241 random 15;
#X msg 1066 696 \$1 \, 0 \$2;
#X obj 1065 665 pack;
#X obj 698 447 *~ 10;
#X obj 1146 312 drunk 45;
#X obj 1146 337 + 50;
#X obj 1210 313 drunk 500;
#X obj 662 128 phasor~;
#X obj 662 153 *~ 2;
#X obj 662 178 -~ 1;
#X obj 661 347 *~;
#X obj 676 229 sel 0 1 2;
#X msg 676 286 1 20;
#X msg 713 285 0 20;
#X obj 661 347 *~;
#X msg 676 286 1 20;
#X obj 737 346 *~;
#X msg 752 285 1 20;
#X msg 789 284 0 20;
#X obj 737 346 *~;
#X msg 752 285 1 20;
#X obj 587 347 *~;
#X msg 602 286 1 20;
#X msg 639 285 0 20;
#X obj 587 347 *~;
#X msg 602 286 1 20;
#X obj 602 311 line;
#X obj 677 311 line;
#X obj 752 313 line;
#X obj 357 117 vradio 51 0 0 3 empty empty input-wave 0 -8 0 10 #fcfcfc
#ff0000 #ff0000 0;
#X obj 357 285 s input-wave;
#X obj 677 200 r input-wave;
#X obj 736 126 phasor~;
#X text 421 137 sine;
#X text 422 184 sawtooth;
#X text 422 240 ramp;
#X text 585 26 RECEIVES MIDI NOTE \, SEND SELECTED WAVEFORM AS INPUT
;
#X obj 33 845 tgl 103 0 empty empty randomize\ adsr 17 7 0 10 #fcfcfc
#ff0000 #ff0000 0 1;
#X text 154 812 CONTROL ADSR IF RANDOMIZATION IS OFF;
#X obj 155 889 s attack;
#X obj 297 889 s decay;
#X obj 154 963 s sus;
#X obj 298 961 s rel;
#X obj 154 842 nbx 4 39 -1e+37 1e+37 0 0 empty empty empty 0 -8 0 31
#fcfcfc #ff0000 #ff0000 30 256 0;
#X obj 154 912 nbx 4 39 -1e+37 1e+37 0 0 empty empty empty 0 -8 0 31
#fcfcfc #ff0000 #ff0000 30 256 0;
#X obj 297 842 nbx 4 39 -1e+37 1e+37 0 0 empty empty empty 0 -8 0 31
#fcfcfc #ff0000 #ff0000 30 256 0;
#X obj 297 912 nbx 4 39 -1e+37 1e+37 0 0 empty empty empty 0 -8 0 31
#fcfcfc #ff0000 #ff0000 30 256 0;
#X obj 33 956 s rand-adsr;
#X text 245 437 random shaping function;
#X obj 36 248 hsl 300 43 20 10000 0 0 empty empty speed\ of\ change\ (20-10000)
-2 -8 0 10 #fcfcfc #ff0000 #ff0000 0 1;
#X obj 37 303 nbx 4 39 -1e+37 1e+37 0 0 empty empty empty 0 -8 0 31
#fcfcfc #ff0000 #ff0000 20 256 0;
#X obj 37 350 s change-rate;
#X obj 11 176 ctlin;
#X obj 11 201 maxlib/scale 0 127 20 10000 0;
#X obj 1439 265 r change-rate;
#X text 1034 234 CREATES RANDOM CHANGES TO ADSR;
#X text 1124 657 APPLIES RANDOM CHANGES TO ADSR;
#X text 1280 228 CREATES RANDOM CHANGES TO SHAPING FUNCTION;
#X obj 930 203 r rand-adsr;
#X obj 193 176 loadbang;
#X msg 193 201 400;
#X msg 225 203 0;
#X connect 0 0 21 0;
#X connect 2 0 9 0;
#X connect 3 0 4 0;
#X connect 4 0 5 0;
#X connect 5 0 17 1;
#X connect 6 0 11 0;
#X connect 6 0 17 2;
#X connect 7 0 8 0;
#X connect 8 0 31 0;
#X connect 9 0 3 0;
#X connect 10 0 15 0;
#X connect 11 0 10 0;
#X connect 11 1 10 1;
#X connect 12 0 13 0;
#X connect 13 0 2 0;
#X connect 13 1 19 0;
#X connect 13 2 33 0;
#X connect 14 0 17 0;
#X connect 15 0 12 0;
#X connect 16 0 32 0;
#X connect 16 1 31 1;
#X connect 17 0 18 0;
#X connect 18 0 7 0;
#X connect 19 0 20 0;
#X connect 20 0 6 0;
#X connect 22 0 15 1;
#X connect 22 0 12 0;
#X connect 23 0 20 1;
#X connect 24 0 23 0;
#X connect 24 0 19 1;
#X connect 25 0 133 0;
#X connect 27 0 34 0;
#X connect 28 0 34 0;
#X connect 28 0 30 0;
#X connect 30 0 1 1;
#X connect 30 0 1 0;
#X connect 32 0 14 0;
#X connect 33 0 16 0;
#X connect 35 0 112 0;
#X connect 36 0 27 0;
#X connect 37 0 25 0;
#X connect 37 0 116 0;
#X connect 37 0 141 0;
#X connect 37 1 54 0;
#X connect 38 0 37 0;
#X connect 38 1 37 1;
#X connect 39 0 35 0;
#X connect 40 0 39 1;
#X connect 41 0 42 0;
#X connect 42 0 43 0;
#X connect 43 0 40 0;
#X connect 44 0 65 0;
#X connect 45 0 44 0;
#X connect 46 0 48 0;
#X connect 47 0 45 0;
#X connect 48 0 50 0;
#X connect 49 0 44 0;
#X connect 50 0 49 0;
#X connect 51 0 53 0;
#X connect 52 0 51 0;
#X connect 53 0 50 1;
#X connect 54 0 68 0;
#X connect 55 0 111 0;
#X connect 56 0 105 1;
#X connect 57 0 106 1;
#X connect 58 0 113 1;
#X connect 59 0 115 1;
#X connect 60 0 71 0;
#X connect 60 0 101 0;
#X connect 61 0 72 0;
#X connect 61 0 102 0;
#X connect 62 0 76 0;
#X connect 62 0 104 0;
#X connect 63 0 64 0;
#X connect 63 1 41 0;
#X connect 64 0 108 0;
#X connect 65 0 30 1;
#X connect 65 0 55 1;
#X connect 66 0 47 0;
#X connect 66 1 67 0;
#X connect 66 1 46 0;
#X connect 67 0 47 1;
#X connect 69 0 83 0;
#X connect 70 0 67 1;
#X connect 73 0 50 2;
#X connect 75 0 80 1;
#X connect 77 0 111 1;
#X connect 78 0 55 0;
#X connect 79 0 46 1;
#X connect 80 0 52 0;
#X connect 81 0 80 0;
#X connect 81 1 52 1;
#X connect 82 0 66 0;
#X connect 83 0 84 0;
#X connect 84 0 82 0;
#X connect 84 1 82 1;
#X connect 85 0 87 0;
#X connect 86 0 81 0;
#X connect 87 0 88 0;
#X connect 88 0 86 0;
#X connect 88 1 86 1;
#X connect 89 0 91 0;
#X connect 90 0 48 1;
#X connect 91 0 92 0;
#X connect 92 0 90 0;
#X connect 92 1 90 1;
#X connect 93 0 95 0;
#X connect 94 0 63 0;
#X connect 95 0 96 0;
#X connect 96 0 94 0;
#X connect 96 1 94 1;
#X connect 97 0 98 0;
#X connect 98 0 78 0;
#X connect 99 0 152 0;
#X connect 99 0 154 0;
#X connect 99 0 153 0;
#X connect 99 0 155 0;
#X connect 100 0 99 0;
#X connect 105 0 60 0;
#X connect 106 0 61 0;
#X connect 107 0 106 2;
#X connect 107 0 105 2;
#X connect 107 0 113 2;
#X connect 107 0 115 2;
#X connect 108 0 105 0;
#X connect 108 0 106 0;
#X connect 108 0 113 0;
#X connect 108 0 115 0;
#X connect 108 1 109 0;
#X connect 109 0 107 0;
#X connect 110 0 44 0;
#X connect 111 0 110 0;
#X connect 112 0 28 0;
#X connect 113 0 114 0;
#X connect 114 0 74 0;
#X connect 114 0 103 0;
#X connect 115 0 62 0;
#X connect 116 0 117 0;
#X connect 117 0 118 0;
#X connect 118 0 123 0;
#X connect 120 0 134 0;
#X connect 120 0 122 0;
#X connect 120 0 127 0;
#X connect 120 1 124 0;
#X connect 120 1 132 0;
#X connect 120 1 127 0;
#X connect 120 2 129 0;
#X connect 120 2 122 0;
#X connect 120 2 132 0;
#X connect 122 0 136 0;
#X connect 123 0 39 0;
#X connect 124 0 136 0;
#X connect 127 0 137 0;
#X connect 128 0 39 0;
#X connect 129 0 137 0;
#X connect 132 0 135 0;
#X connect 133 0 39 0;
#X connect 134 0 135 0;
#X connect 135 0 133 1;
#X connect 136 0 123 1;
#X connect 137 0 128 1;
#X connect 138 0 139 0;
#X connect 140 0 120 0;
#X connect 141 0 128 0;
#X connect 146 0 156 0;
#X connect 152 0 148 0;
#X connect 153 0 150 0;
#X connect 154 0 149 0;
#X connect 155 0 151 0;
#X connect 158 0 159 0;
#X connect 159 0 160 0;
#X connect 161 0 162 0;
#X connect 162 0 158 0;
#X connect 163 0 24 0;
#X connect 167 0 64 1;
#X connect 168 0 169 0;
#X connect 168 0 170 0;
#X connect 169 0 158 0;
#X connect 170 0 138 0;
