#N canvas 8 0 1354 810 10;
#X floatatom 520 312 11 0 0 0 - - -, f 11;
#X obj 458 307 mtof;
#X obj 459 129 stripnote;
#X obj 324 117 t b f;
#X obj 324 142 f;
#X obj 324 167 sel 0;
#X obj 369 168 f;
#X obj 369 193 sel;
#X msg 369 218 0;
#X obj 520 287 maxlib/scale 0 127 0 1;
#X obj 323 38 inlet;
#X text 308 19 MIDI note input;
#X obj 512 44 inlet;
#X text 491 24 MIDI velocity input;
#X obj 393 420 outlet;
#X obj 520 361 line;
#X obj 520 422 outlet;
#X text 521 446 Velocity between 0 and 1;
#X text 379 443 Frequency in Hz;
#X msg 520 336 \$1 10;
#X connect 0 0 19 0;
#X connect 1 0 14 0;
#X connect 2 0 1 0;
#X connect 2 0 7 1;
#X connect 3 0 4 0;
#X connect 3 1 6 1;
#X connect 4 0 5 0;
#X connect 5 0 6 0;
#X connect 5 1 9 0;
#X connect 6 0 7 0;
#X connect 7 0 8 0;
#X connect 8 0 9 0;
#X connect 9 0 0 0;
#X connect 10 0 3 0;
#X connect 10 0 2 0;
#X connect 12 0 2 1;
#X connect 12 0 4 1;
#X connect 15 0 16 0;
#X connect 19 0 15 0;
